<svg xmlns="http://www.w3.org/2000/svg" viewBox="0 0 197.31 150.18"><defs><style>.cls-1,.cls-5{fill:#cfc7bd;}.cls-2{fill:none;}.cls-2,.cls-3,.cls-4,.cls-5,.cls-6{stroke:#000;stroke-linecap:round;stroke-linejoin:round;}.cls-2,.cls-3,.cls-4,.cls-5{stroke-width:5px;}.cls-3,.cls-6{fill:#fff;}.cls-6{stroke-width:4px;}</style></defs><title>Towser_LogoAsset 1</title><g id="Layer_2" data-name="Layer 2"><g id="Layer_1-2" data-name="Layer 1"><path class="cls-1" d="M132.36,112.75c-.85-5.27-7.74-6-12-6.62a93.44,93.44,0,0,0-19.57-.29c-4,.26-8.1.59-12.15.76-3.27.14-6.65-.09-9.86.64-5,1.12-8.62,4.72-11.77,8.55-.11-.71-.2-1.42-.3-2.13s-1.08-.63-1,0c.14,1.06.29,2.12.46,3.17-.4.49-.79,1-1.17,1.49s.31,1.21.71.7l.69-.88c.72,3.84,1.87,7.55,4.41,10.69,2,2.46,4.19,4.8,6.27,7.17a26.77,26.77,0,0,0,6.42,5.64,36.58,36.58,0,0,0,17,4.46c6.05.12,12.22-2.42,17.54-5.13a24.7,24.7,0,0,0,10.85-11.59C131.18,124.63,133.23,118.09,132.36,112.75Z"/><path class="cls-1" d="M138.59,62.21a2.49,2.49,0,0,1-3,2.45l-.11,0-14.27-2.18a34.77,34.77,0,0,1-16.94-7.6,7.29,7.29,0,0,0-9.3,0,34.74,34.74,0,0,1-16.93,7.6L63.8,64.64l-.11,0a2.49,2.49,0,0,1-3-2.45V50.38a38.94,38.94,0,1,1,77.87,0V62.21Z"/><path class="cls-2" d="M58.22,64.76V50.38a41.44,41.44,0,1,1,82.87,0v9.55"/><path class="cls-2" d="M65.34,113.37a34.32,34.32,0,0,0,68.63,0"/><path class="cls-2" d="M91.74,136.89a17.19,17.19,0,0,0,15.83,0"/><path class="cls-3" d="M187,82.32A23.59,23.59,0,1,0,147.3,58.55a3.42,3.42,0,0,1-3.05,2.29L50.72,65.11a3.44,3.44,0,0,1-3.25-2A23.59,23.59,0,1,0,10.06,90.38a3.35,3.35,0,0,1,.21,4.67A23.59,23.59,0,1,0,50,118.82a3.41,3.41,0,0,1,3.05-2.3l93.53-4.26a3.43,3.43,0,0,1,3.25,2A23.59,23.59,0,1,0,187.25,87,3.34,3.34,0,0,1,187,82.32Z"/><path class="cls-3" d="M79.25,124.25l3.83-11.88a1.34,1.34,0,0,1,2.54,0l3.83,11.88h0a10.26,10.26,0,0,1-10.2,0Z"/><path class="cls-3" d="M89.45,125.9l1.22-3.77a4.08,4.08,0,0,1,7.77,0l1.21,3.77h0a10.21,10.21,0,0,1-10.2,0Z"/><path class="cls-3" d="M99.65,125.9l1.22-3.77a4.08,4.08,0,0,1,7.77,0l1.22,3.77h0a10.23,10.23,0,0,1-10.21,0Z"/><path class="cls-3" d="M109.86,124.25l3.83-11.88a1.34,1.34,0,0,1,2.54,0l3.83,11.88h0a10.26,10.26,0,0,1-10.2,0Z"/><path d="M87.3,117.44v0c.26,2.7,3.52,4.58,5.65,2.35l1-1a14.6,14.6,0,0,0,4.63,3c2.35.93,4.62-1.73,4.1-3.94.5.07,1,.13,1.37.16a3.28,3.28,0,0,0,1.27,1.53,7.58,7.58,0,0,0,4.08,1.59,3.33,3.33,0,0,0,2.86-1.64c.37-.61.66-3,.92-3.69Z"/><path class="cls-3" d="M111.07,59.49l-1.37,4.22a4.56,4.56,0,0,1-8.68,0l-1.37-4.22h0a11.47,11.47,0,0,1,11.42,0Z"/><path class="cls-3" d="M123.48,63.49l-1.37,4.22a4.56,4.56,0,0,1-8.68,0l-1.36-4.22h0a11.45,11.45,0,0,1,11.41,0Z"/><path class="cls-3" d="M99.65,59.49l-1.36,4.22a4.56,4.56,0,0,1-8.68,0l-1.37-4.22h0a11.45,11.45,0,0,1,11.41,0Z"/><path class="cls-3" d="M87.24,63.49l-1.36,4.22a4.56,4.56,0,0,1-8.68,0l-1.37-4.22h0a11.45,11.45,0,0,1,11.41,0Z"/><path class="cls-4" d="M122.56,15.15a27.06,27.06,0,0,0-45.81,0s-4.82,6.19,1.48,8.51c5.07,1.87,5.14-7.12,11.64-7.12,8,0,7.81,13.84-1.15,13.84a3.76,3.76,0,0,0-3.45,1.55,4.76,4.76,0,0,0,.91,6.27,20.38,20.38,0,0,0,26.95,0,4.76,4.76,0,0,0,.91-6.27,3.76,3.76,0,0,0-3.45-1.55c-9,0-9.17-13.84-1.15-13.84,6.5,0,6.57,9,11.64,7.12C127.38,21.34,122.56,15.15,122.56,15.15Z"/><path d="M36.91,86.45l.8,17.5a.81.81,0,0,1-.77.85l-4.75.21a.8.8,0,0,1-.84-.77l-.8-17.5A.81.81,0,0,0,29.7,86l-3.57.16a.8.8,0,0,1-.84-.77l-.17-3.79a.8.8,0,0,1,.77-.84L41.11,80a.81.81,0,0,1,.85.77l.17,3.79a.81.81,0,0,1-.77.85l-3.68.17A.8.8,0,0,0,36.91,86.45Z"/><path d="M67.79,100.3a14.68,14.68,0,0,1-19.34.88,12.85,12.85,0,0,1-.84-18.35A14.68,14.68,0,0,1,67,82a12.85,12.85,0,0,1,.84,18.35ZM52.52,87.1A6.8,6.8,0,0,0,50.79,92,6.24,6.24,0,0,0,53,96.48a7,7,0,0,0,5,1.72,6.67,6.67,0,0,0,6.61-6.93,6.61,6.61,0,0,0-2.2-4.62,7.33,7.33,0,0,0-5-1.72A7.1,7.1,0,0,0,52.52,87.1Z"/><path d="M77.52,79l4,12.48a.81.81,0,0,0,1.55,0l3.58-12.9a.8.8,0,0,1,.74-.59l3.89-.18a.8.8,0,0,1,.8.54l4.44,12.5A.8.8,0,0,0,98,90.71l3.13-12.83a.81.81,0,0,1,.75-.62l4.94-.22a.8.8,0,0,1,.82,1L101.4,101.3a.81.81,0,0,1-.75.59l-5.32.25a.82.82,0,0,1-.8-.53l-4-11.08a.81.81,0,0,0-1.54.06L85.74,102a.84.84,0,0,1-.74.59l-5.29.24a.82.82,0,0,1-.8-.54L71,79.71a.81.81,0,0,1,.73-1.07l4.95-.23A.8.8,0,0,1,77.52,79Z"/><path d="M111,94.94a.8.8,0,0,1,1.2-.3,8.26,8.26,0,0,0,5,1.64,3.25,3.25,0,0,0,2.43-1,2.2,2.2,0,0,0,.55-1.57,1.91,1.91,0,0,0-.76-1.44,8.78,8.78,0,0,0-3.22-1.15l-1.68-.44a7.9,7.9,0,0,1-3.62-1.82,6.19,6.19,0,0,1-1.6-4.27,8.07,8.07,0,0,1,2-6,8.69,8.69,0,0,1,6.18-2.6,17.08,17.08,0,0,1,6.91,1.31.8.8,0,0,1,.41,1.08l-1.58,3.48a.81.81,0,0,1-1.15.35,6,6,0,0,0-3.51-1,3.06,3.06,0,0,0-2.06.83,1.79,1.79,0,0,0-.56,1.35,1.66,1.66,0,0,0,.38,1.09,4,4,0,0,0,2.18,1l2,.5A9.42,9.42,0,0,1,125,88.26a5.79,5.79,0,0,1,1.78,4.3,8.3,8.3,0,0,1-2,6.28c-2,2.19-4.52,2.71-7.13,2.83a13.11,13.11,0,0,1-4.85-.59,16.18,16.18,0,0,1-3.15-1.39.81.81,0,0,1-.34-1Z"/><path d="M143.43,80.79l-6,.27a.81.81,0,0,0-.77.84l.11,2.47a.81.81,0,0,0,.85.77l5.55-.25a.81.81,0,0,1,.85.77l.17,3.79a.8.8,0,0,1-.77.84l-5.56.25a.81.81,0,0,0-.77.85l.12,2.61a.81.81,0,0,0,.85.77l6-.27a.8.8,0,0,1,.84.77l.17,3.79a.8.8,0,0,1-.77.84l-12.32.57a.81.81,0,0,1-.84-.77l-1-22.91a.8.8,0,0,1,.77-.85l12.32-.56a.81.81,0,0,1,.84.77l.17,3.79A.81.81,0,0,1,143.43,80.79Z"/><path d="M169.21,97.47,162.89,90a.8.8,0,0,1,.29-1.26,6.4,6.4,0,0,0,2.24-1.5,7.06,7.06,0,0,0,1.72-5.2,8.05,8.05,0,0,0-2.35-5.42,8,8,0,0,0-6.09-1.9l-9.12.42a.81.81,0,0,0-.77.84l1.05,22.91a.8.8,0,0,0,.84.77l4.75-.21a.81.81,0,0,0,.77-.85L156,92.68a.8.8,0,0,1,1.46-.51l4.69,6.55a.8.8,0,0,0,.69.34l5.84-.26A.81.81,0,0,0,169.21,97.47Zm-9.32-12.83a4.75,4.75,0,0,1-3,1.13l-.78,0a.43.43,0,0,1-.45-.41l-.19-4-.05-1.17a.44.44,0,0,1,.41-.46l.78,0a4.27,4.27,0,0,1,3.1.82,2.91,2.91,0,0,1,.94,2A3.06,3.06,0,0,1,159.89,84.64Z"/><path class="cls-5" d="M141.09,54.65v7.57h0a5,5,0,0,1-6,4.89l-14.28-2.18a37.16,37.16,0,0,1-18.15-8.15h0a4.81,4.81,0,0,0-6.11,0h0a37.16,37.16,0,0,1-18.15,8.15L64.17,67.11a5,5,0,0,1-6-4.89h0V54.65"/><line class="cls-6" x1="125.8" y1="44.84" x2="125.8" y2="44.84"/><line class="cls-6" x1="118.18" y1="49.73" x2="118.18" y2="49.73"/><line class="cls-6" x1="126.81" y1="53.43" x2="126.81" y2="53.43"/><line class="cls-6" x1="73.51" y1="44.84" x2="73.51" y2="44.84"/><line class="cls-6" x1="81.13" y1="49.73" x2="81.13" y2="49.73"/><line class="cls-6" x1="72.5" y1="53.43" x2="72.5" y2="53.43"/></g></g></svg>